<svg width="22" height="24" viewBox="0 0 22 24" fill="none" xmlns="http://www.w3.org/2000/svg">
<g id="&#240;&#159;&#166;&#134; icon &#34;trash&#34;">
<path id="Vector" d="M7.40019 2.4V1.2C7.40019 0.88174 7.52662 0.576516 7.75167 0.351472C7.97671 0.126428 8.28194 0 8.60019 0L13.4002 0C13.7185 0 14.0237 0.126428 14.2487 0.351472C14.4738 0.576516 14.6002 0.88174 14.6002 1.2V2.4H19.4002C20.0367 2.4 20.6472 2.65286 21.0972 3.10294C21.5473 3.55303 21.8002 4.16348 21.8002 4.8V6C21.8002 6.63652 21.5473 7.24697 21.0972 7.69706C20.6472 8.14714 20.0367 8.4 19.4002 8.4H19.2406L18.4246 20.64C18.3637 21.5511 17.9589 22.4051 17.292 23.0289C16.6252 23.6528 15.7462 23.9999 14.833 24H7.1914C6.279 24 5.40065 23.6535 4.73393 23.0307C4.0672 22.4078 3.66184 21.5551 3.5998 20.6448L2.7646 8.4H2.6002C1.96368 8.4 1.35323 8.14714 0.903139 7.69706C0.453052 7.24697 0.200195 6.63652 0.200195 6V4.8C0.200195 4.16348 0.453052 3.55303 0.903139 3.10294C1.35323 2.65286 1.96368 2.4 2.6002 2.4H7.40019ZM19.4002 4.8H2.6002V6H19.4002V4.8ZM5.16939 8.4L5.9938 20.4816C6.01448 20.7851 6.14966 21.0694 6.37199 21.277C6.59431 21.4847 6.8872 21.6001 7.1914 21.6H14.833C15.1376 21.6001 15.4308 21.4843 15.6532 21.2762C15.8756 21.068 16.0105 20.7831 16.0306 20.4792L16.8346 8.4H5.1706H5.16939ZM8.60019 9.6C8.91845 9.6 9.22368 9.72643 9.44872 9.95147C9.67377 10.1765 9.80019 10.4817 9.80019 10.8V19.2C9.80019 19.5183 9.67377 19.8235 9.44872 20.0485C9.22368 20.2736 8.91845 20.4 8.60019 20.4C8.28194 20.4 7.97671 20.2736 7.75167 20.0485C7.52662 19.8235 7.40019 19.5183 7.40019 19.2V10.8C7.40019 10.4817 7.52662 10.1765 7.75167 9.95147C7.97671 9.72643 8.28194 9.6 8.60019 9.6ZM13.4002 9.6C13.7185 9.6 14.0237 9.72643 14.2487 9.95147C14.4738 10.1765 14.6002 10.4817 14.6002 10.8V19.2C14.6002 19.5183 14.4738 19.8235 14.2487 20.0485C14.0237 20.2736 13.7185 20.4 13.4002 20.4C13.0819 20.4 12.7767 20.2736 12.5517 20.0485C12.3266 19.8235 12.2002 19.5183 12.2002 19.2V10.8C12.2002 10.4817 12.3266 10.1765 12.5517 9.95147C12.7767 9.72643 13.0819 9.6 13.4002 9.6Z" fill="#F36868"/>
</g>
</svg>
